<?xml version="1.0" encoding="UTF-8"?>
<svg xmlns="http://www.w3.org/2000/svg" style="stroke-dasharray:none; shape-rendering:auto; font-family:'Arial'; text-rendering:auto; fill-opacity:1; color-interpolation:auto; color-rendering:auto; font-size:12; fill:black; stroke:black; image-rendering:auto; stroke-miterlimit:10; stroke-linecap:square; stroke-linejoin:miter; font-style:normal; stroke-width:1; stroke-dashoffset:0; font-weight:normal; stroke-opacity:1;" contentScriptType="text/ecmascript" preserveAspectRatio="xMidYMid meet" zoomAndPan="magnify" version="1.0" contentStyleType="text/css" xml:xlink="http://www.w3.org/1999/xlink" width="1291" height="921"><rect x="100" y="0" width="1191" height="921" ry="0" rx="0" style="stroke:#000000; fill:#E3E4EA" /><rect x="130" y="307" width="1161" height="307" ry="0" rx="0" style="stroke:#000000; fill:#D5D8FD" /><g componentSequence="4"><text x="-460" y="137" transform="rotate(270)" text-anchor="middle" style="font-weight:bold;font-size:10px;stroke:none; fill:#434343"><tspan dy="14" x="-460">Demandante</tspan></text></g><rect x="130" y="614" width="1161" height="307" ry="0" rx="0" style="stroke:#000000; fill:#D6E0D0" /><g componentSequence="3"><text x="-767" y="137" transform="rotate(270)" text-anchor="middle" style="font-weight:bold;font-size:10px;stroke:none; fill:#434343"><tspan dy="14" x="-767">USO</tspan></text></g><rect x="130" y="0" width="1161" height="307" ry="0" rx="0" style="stroke:#000000; fill:#D0DAAE" /><g componentSequence="2"><text x="-153" y="137" transform="rotate(270)" text-anchor="middle" style="font-weight:bold;font-size:10px;stroke:none; fill:#434343"><tspan dy="14" x="-153">Locadora de Veículos</tspan></text></g><g componentSequence="1"><text x="-460" y="107" transform="rotate(270)" text-anchor="middle" style="font-weight:bold;font-size:10px;stroke:none; fill:#434343"><tspan dy="14" x="-460">Solicitação de Veículo</tspan></text></g><g sequence="9"><ellipse cx="207" cy="137" rx="17" ry="17" stroke-width="1" style="fill:url(#linearGradient66FF6696FF96B6FFB6_1669652958);" stroke="336633" /></g><g sequence="10"><rect x="270" y="30" width="106" height="70" ry="5" rx="5" style="fill:url(#linearGradientF8FBFEEDF5FCDEEDFAD4E7F8E2E5E9_1833112542);" stroke="191970" /></g><g componentSequence="10"><text x="323" y="45" text-anchor="middle" style="font-weight:bold;font-size:10px;stroke:none; fill:#333399"><tspan dy="14" x="323">Aprovação do</tspan><tspan dy="14" x="323">Gerente</tspan></text></g><g sequence="12"><polygon points=" 480 128 510 98 540 128 510 158 480 128" style="fill:url(#linearGradientFAFBFCFFFFCC_1769769646);" stroke="000000" /></g><g componentSequence="12"><text x="510" y="168" text-anchor="middle" style="font-weight:bold;font-size:10px;stroke:none; fill:#333399"><tspan dy="14" x="510">Viagem</tspan><tspan dy="14" x="510">Aprovad</tspan><tspan dy="14" x="510">a</tspan></text></g><g sequence="14"><rect x="200" y="422" width="106" height="98" ry="5" rx="5" style="fill:url(#linearGradientF8FBFEEDF5FCDEEDFAD4E7F8E2E5E9_746461669);" stroke="191970" /></g><g componentSequence="14"><text x="253" y="437" text-anchor="middle" style="font-weight:bold;font-size:10px;stroke:none; fill:#333399"><tspan dy="14" x="253">USO -</tspan><tspan dy="14" x="253">Solicitação do</tspan><tspan dy="14" x="253">Veículo a</tspan><tspan dy="14" x="253">Locadora</tspan></text></g><g sequence="15"><rect x="460" y="429" width="106" height="84" ry="5" rx="5" style="fill:url(#linearGradientF8FBFEEDF5FCDEEDFAD4E7F8E2E5E9_1756403621);" stroke="191970" /></g><g componentSequence="15"><text x="513" y="444" text-anchor="middle" style="font-weight:bold;font-size:10px;stroke:none; fill:#333399"><tspan dy="14" x="513">UMP - Liberação</tspan><tspan dy="14" x="513">do Veículo</tspan><tspan dy="14" x="513">próprio</tspan></text></g><g sequence="16"><rect x="210" y="720" width="106" height="70" ry="5" rx="5" style="fill:url(#linearGradientF8FBFEEDF5FCDEEDFAD4E7F8E2E5E9_496546958);" stroke="191970" /></g><g componentSequence="16"><text x="263" y="735" text-anchor="middle" style="font-weight:bold;font-size:10px;stroke:none; fill:#333399"><tspan dy="14" x="263">Aluguel do</tspan><tspan dy="14" x="263">Veículo</tspan></text></g><g sequence="17"><ellipse cx="1227" cy="97" rx="17" ry="17" stroke-width="3" style="fill:url(#linearGradientFF6666FF9696FFB6B6_280781929);" stroke="993333" /></g><g sequence="23"><rect x="670" y="59" width="106" height="84" ry="5" rx="5" style="fill:url(#linearGradientF8FBFEEDF5FCDEEDFAD4E7F8E2E5E9_1280435882);" stroke="191970" /></g><g componentSequence="23"><text x="723" y="74" text-anchor="middle" style="font-weight:bold;font-size:10px;stroke:none; fill:#333399"><tspan dy="14" x="723">Realização da</tspan><tspan dy="14" x="723">Viagem e</tspan><tspan dy="14" x="723">Avaliação</tspan></text></g><g sequence="24"><rect x="1170" y="190" width="106" height="56" ry="5" rx="5" style="fill:url(#linearGradientF8FBFEEDF5FCDEEDFAD4E7F8E2E5E9_540040506);" stroke="191970" /></g><g componentSequence="24"><text x="1223" y="207" text-anchor="middle" style="font-weight:bold;font-size:10px;stroke:none; fill:#333399"><tspan dy="14" x="1223">Avaliação Geral</tspan></text></g><g sequence="31"><ellipse cx="497" cy="37" rx="17" ry="17" stroke-width="3" style="fill:url(#linearGradientFF6666FF9696FFB6B6_2027200886);" stroke="993333" /></g><g sequence="31"><polygon points=" 488 33 493 28 498 33 503 28 508 33 503 38 508 43 503 48 498 43 493 48 488 43 493 38" style="stroke:none; fill:#993333" /></g><g sequence="36"><rect x="720" y="422" width="106" height="84" ry="5" rx="5" style="fill:url(#linearGradientF8FBFEEDF5FCDEEDFAD4E7F8E2E5E9_196611369);" stroke="191970" /></g><g componentSequence="36"><text x="773" y="437" text-anchor="middle" style="font-weight:bold;font-size:10px;stroke:none; fill:#333399"><tspan dy="14" x="773">USO -</tspan><tspan dy="14" x="773">Recebimento do</tspan><tspan dy="14" x="773">Veículo</tspan></text></g><g sequence="44"><rect x="970" y="700" width="106" height="98" ry="5" rx="5" style="fill:url(#linearGradientF8FBFEEDF5FCDEEDFAD4E7F8E2E5E9_1210048066);" stroke="191970" /></g><g componentSequence="44"><text x="1023" y="715" text-anchor="middle" style="font-weight:bold;font-size:10px;stroke:none; fill:#333399"><tspan dy="14" x="1023">Adição das</tspan><tspan dy="14" x="1023">diárias ao</tspan><tspan dy="14" x="1023">contrato de</tspan><tspan dy="14" x="1023">aluguel</tspan></text></g><g sequence="66"><rect x="260" y="180" width="106" height="56" ry="5" rx="5" style="fill:url(#linearGradientF8FBFEEDF5FCDEEDFAD4E7F8E2E5E9_1784976374);" stroke="191970" /></g><g componentSequence="66"><text x="313" y="197" text-anchor="middle" style="font-weight:bold;font-size:10px;stroke:none; fill:#333399"><tspan dy="14" x="313">Ajuste</tspan></text></g><g componentSequence="22"><text x="176" y="612" style="font-size:10px;font-weight:none;stroke:none; fill:#333399" text-anchor="left" /></g><g componentSequence="27"><text x="438" y="116" style="font-size:10px;font-weight:none;stroke:none; fill:#333399" text-anchor="left" /></g><g componentSequence="29"><text x="996" y="45" style="font-size:10px;font-weight:none;stroke:none; fill:#333399" text-anchor="left" /></g><g componentSequence="41"><text x="1235" y="152" style="font-size:10px;font-weight:none;stroke:none; fill:#333399" text-anchor="left" /></g><g componentSequence="48"><text x="224" y="69" style="font-size:10px;font-weight:none;stroke:none; fill:#333399" text-anchor="left" /></g><g componentSequence="49"><text x="438" y="48" style="font-size:10px;font-weight:none;stroke:none; fill:#333399" text-anchor="left" /></g><g componentSequence="50"><text x="432" y="326" style="font-size:10px;font-weight:none;stroke:none; fill:#333399" text-anchor="left" /></g><g componentSequence="51"><text x="521" y="321" style="font-size:10px;font-weight:none;stroke:none; fill:#333399" text-anchor="left" /></g><g componentSequence="52"><text x="647" y="328" style="font-size:10px;font-weight:none;stroke:none; fill:#333399" text-anchor="left" /></g><g componentSequence="62"><text x="679" y="754" style="font-size:10px;font-weight:none;stroke:none; fill:#333399" text-anchor="left" /></g><g componentSequence="63"><text x="882" y="221" style="font-size:10px;font-weight:none;stroke:none; fill:#333399" text-anchor="left" /></g><g componentSequence="64"><text x="905" y="603" style="font-size:10px;font-weight:none;stroke:none; fill:#333399" text-anchor="left" /></g><g componentSequence="65"><text x="1033" y="483" style="font-size:10px;font-weight:none;stroke:none; fill:#333399" text-anchor="left" /></g><g componentSequence="67"><text x="295" y="329" style="font-size:10px;font-weight:none;stroke:none; fill:#333399" text-anchor="left" /></g><g componentSequence="68"><text x="295" y="329" style="font-size:10px;font-weight:none;stroke:none; fill:#333399" text-anchor="left" /></g><path style="fill:none; stroke:#000000;stroke-width:1" d="M207.0 120.0 L208.0 69.0 L269.0 67.0" /><polygon style="fill:#000000; stroke:#000000;" points=" 259 62 269 67 259 72 261 67" /><path style="fill:none; stroke:#000000;stroke-width:1" d="M376.0 91.0 L479.0 141.0" /><polygon style="fill:#000000; stroke:#000000;" points=" 472 132 479 141 468 141 472 138" /><path style="fill:none; stroke:#000000;stroke-width:1" d="M376.0 56.0 L480.0 39.0" /><polygon style="fill:#000000; stroke:#000000;" points=" 469 36 480 39 471 46 472 40" /><path style="fill:none; stroke:#000000;stroke-width:1" d="M509.0 214.0 L508.0 253.0 L306.0 425.0" /><polygon style="fill:#000000; stroke:#000000;" points=" 317 422 306 425 310 415 312 420" /><path style="fill:none; stroke:#000000;stroke-width:1" d="M510.0 214.0 L512.0 428.0" /><polygon style="fill:#000000; stroke:#000000;" points=" 517 418 512 428 507 418 512 420" /><path style="fill:none; stroke:#000000;stroke-width:1" d="M199.0 459.0 L199.0 459.0 L166.0 460.0 L166.0 754.0 L209.0 754.0" /><polygon style="fill:#000000; stroke:#000000;" points=" 199 749 209 754 199 759 201 754" /><path style="fill:none; stroke:#000000;stroke-width:1" d="M264.0 421.0 L306.0 236.0" /><polygon style="fill:#000000; stroke:#000000;" points=" 299 245 306 236 309 247 304 244" /><path style="fill:none; stroke:#000000;stroke-width:1" d="M306.0 236.0 L264.0 421.0" /><polygon style="fill:#000000; stroke:#000000;" points=" 271 412 264 421 261 410 266 413" /><path style="fill:none; stroke:#000000;stroke-width:1" d="M566.0 465.0 L637.0 458.0 L637.0 173.0 L672.0 143.0" /><polygon style="fill:#000000; stroke:#000000;" points=" 661 146 672 143 668 153 666 148" /><path style="fill:none; stroke:#000000;stroke-width:1" d="M316.0 754.0 L774.0 754.0 L773.0 506.0" /><polygon style="fill:#000000; stroke:#000000;" points=" 768 516 773 506 778 516 773 514" /><path style="fill:none; stroke:#000000;stroke-width:1" d="M721.0 58.0 L721.0 45.0 L781.0 45.0 L911.0 45.0 L1157.0 45.0 L1228.0 44.0 L1227.0 80.0" /><polygon style="fill:#000000; stroke:#000000;" points=" 1232 70 1227 80 1222 70 1227 72" /><path style="fill:none; stroke:#000000;stroke-width:1" d="M1224.0 189.0 L1227.0 114.0" /><polygon style="fill:#000000; stroke:#000000;" points=" 1222 124 1227 114 1232 124 1227 122" /><path style="fill:none; stroke:#000000;stroke-width:1" d="M773.0 421.0 L773.0 222.0 L1169.0 218.0" /><polygon style="fill:#000000; stroke:#000000;" points=" 1159 213 1169 218 1159 223 1161 218" /><path style="fill:none; stroke:#000000;stroke-width:1" d="M810.0 506.0 L979.0 699.0" /><polygon style="fill:#000000; stroke:#000000;" points=" 976 688 979 699 969 695 974 693" /><path style="fill:none; stroke:#000000;stroke-width:1" d="M1023.0 699.0 L1023.0 464.0 L826.0 464.0" /><polygon style="fill:#000000; stroke:#000000;" points=" 836 469 826 464 836 459 834 464" /><defs><linearGradient xmlns:xlink="http://www.w3.org/1999/xlink" xlink:href="#linearGradient66FF6696FF96B6FFB6" id="linearGradient66FF6696FF96B6FFB6_1669652958" x1="0" y1="120.0" x2="0" y2="155.0" gradientUnits="userSpaceOnUse" xlink:type="simple" xlink:actuate="onLoad" xlink:show="other" /><linearGradient id="linearGradient66FF6696FF96B6FFB6"><stop style="stop-color:#66FF66;stop-opacity:1;" offset="0.0" id="stop66FF66" /><stop style="stop-color:#96FF96;stop-opacity:1;" offset="0.5" id="stop96FF96" /><stop style="stop-color:#B6FFB6;stop-opacity:1;" offset="1.0" id="stopB6FFB6" /></linearGradient><linearGradient xmlns:xlink="http://www.w3.org/1999/xlink" xlink:href="#linearGradientF8FBFEEDF5FCDEEDFAD4E7F8E2E5E9" id="linearGradientF8FBFEEDF5FCDEEDFAD4E7F8E2E5E9_1833112542" x1="0" y1="30.0" x2="0" y2="136.0" gradientUnits="userSpaceOnUse" xlink:type="simple" xlink:actuate="onLoad" xlink:show="other" /><linearGradient id="linearGradientF8FBFEEDF5FCDEEDFAD4E7F8E2E5E9"><stop style="stop-color:#F8FBFE;stop-opacity:1;" offset="0.0" id="stopF8FBFE" /><stop style="stop-color:#EDF5FC;stop-opacity:1;" offset="0.25" id="stopEDF5FC" /><stop style="stop-color:#DEEDFA;stop-opacity:1;" offset="0.5" id="stopDEEDFA" /><stop style="stop-color:#D4E7F8;stop-opacity:1;" offset="0.75" id="stopD4E7F8" /><stop style="stop-color:#E2E5E9;stop-opacity:1;" offset="1.0" id="stopE2E5E9" /></linearGradient><linearGradient xmlns:xlink="http://www.w3.org/1999/xlink" xlink:href="#linearGradientFAFBFCFFFFCC" id="linearGradientFAFBFCFFFFCC_1769769646" x1="0" y1="98.0" x2="0" y2="158.0" gradientUnits="userSpaceOnUse" xlink:type="simple" xlink:actuate="onLoad" xlink:show="other" /><linearGradient id="linearGradientFAFBFCFFFFCC"><stop style="stop-color:#FAFBFC;stop-opacity:1;" offset="0.0" id="stopFAFBFC" /><stop style="stop-color:#FFFFCC;stop-opacity:1;" offset="1.0" id="stopFFFFCC" /></linearGradient><linearGradient xmlns:xlink="http://www.w3.org/1999/xlink" xlink:href="#linearGradientF8FBFEEDF5FCDEEDFAD4E7F8E2E5E9" id="linearGradientF8FBFEEDF5FCDEEDFAD4E7F8E2E5E9_746461669" x1="0" y1="422.0" x2="0" y2="528.0" gradientUnits="userSpaceOnUse" xlink:type="simple" xlink:actuate="onLoad" xlink:show="other" /><linearGradient xmlns:xlink="http://www.w3.org/1999/xlink" xlink:href="#linearGradientF8FBFEEDF5FCDEEDFAD4E7F8E2E5E9" id="linearGradientF8FBFEEDF5FCDEEDFAD4E7F8E2E5E9_1756403621" x1="0" y1="429.0" x2="0" y2="535.0" gradientUnits="userSpaceOnUse" xlink:type="simple" xlink:actuate="onLoad" xlink:show="other" /><linearGradient xmlns:xlink="http://www.w3.org/1999/xlink" xlink:href="#linearGradientF8FBFEEDF5FCDEEDFAD4E7F8E2E5E9" id="linearGradientF8FBFEEDF5FCDEEDFAD4E7F8E2E5E9_496546958" x1="0" y1="720.0" x2="0" y2="826.0" gradientUnits="userSpaceOnUse" xlink:type="simple" xlink:actuate="onLoad" xlink:show="other" /><linearGradient xmlns:xlink="http://www.w3.org/1999/xlink" xlink:href="#linearGradientFF6666FF9696FFB6B6" id="linearGradientFF6666FF9696FFB6B6_280781929" x1="0" y1="80.0" x2="0" y2="115.0" gradientUnits="userSpaceOnUse" xlink:type="simple" xlink:actuate="onLoad" xlink:show="other" /><linearGradient id="linearGradientFF6666FF9696FFB6B6"><stop style="stop-color:#FF6666;stop-opacity:1;" offset="0.0" id="stopFF6666" /><stop style="stop-color:#FF9696;stop-opacity:1;" offset="0.5" id="stopFF9696" /><stop style="stop-color:#FFB6B6;stop-opacity:1;" offset="1.0" id="stopFFB6B6" /></linearGradient><linearGradient xmlns:xlink="http://www.w3.org/1999/xlink" xlink:href="#linearGradientF8FBFEEDF5FCDEEDFAD4E7F8E2E5E9" id="linearGradientF8FBFEEDF5FCDEEDFAD4E7F8E2E5E9_1280435882" x1="0" y1="59.0" x2="0" y2="165.0" gradientUnits="userSpaceOnUse" xlink:type="simple" xlink:actuate="onLoad" xlink:show="other" /><linearGradient xmlns:xlink="http://www.w3.org/1999/xlink" xlink:href="#linearGradientF8FBFEEDF5FCDEEDFAD4E7F8E2E5E9" id="linearGradientF8FBFEEDF5FCDEEDFAD4E7F8E2E5E9_540040506" x1="0" y1="190.0" x2="0" y2="296.0" gradientUnits="userSpaceOnUse" xlink:type="simple" xlink:actuate="onLoad" xlink:show="other" /><linearGradient xmlns:xlink="http://www.w3.org/1999/xlink" xlink:href="#linearGradientFF6666FF9696FFB6B6" id="linearGradientFF6666FF9696FFB6B6_2027200886" x1="0" y1="20.0" x2="0" y2="55.0" gradientUnits="userSpaceOnUse" xlink:type="simple" xlink:actuate="onLoad" xlink:show="other" /><linearGradient xmlns:xlink="http://www.w3.org/1999/xlink" xlink:href="#linearGradientF8FBFEEDF5FCDEEDFAD4E7F8E2E5E9" id="linearGradientF8FBFEEDF5FCDEEDFAD4E7F8E2E5E9_196611369" x1="0" y1="422.0" x2="0" y2="528.0" gradientUnits="userSpaceOnUse" xlink:type="simple" xlink:actuate="onLoad" xlink:show="other" /><linearGradient xmlns:xlink="http://www.w3.org/1999/xlink" xlink:href="#linearGradientF8FBFEEDF5FCDEEDFAD4E7F8E2E5E9" id="linearGradientF8FBFEEDF5FCDEEDFAD4E7F8E2E5E9_1210048066" x1="0" y1="700.0" x2="0" y2="806.0" gradientUnits="userSpaceOnUse" xlink:type="simple" xlink:actuate="onLoad" xlink:show="other" /><linearGradient xmlns:xlink="http://www.w3.org/1999/xlink" xlink:href="#linearGradientF8FBFEEDF5FCDEEDFAD4E7F8E2E5E9" id="linearGradientF8FBFEEDF5FCDEEDFAD4E7F8E2E5E9_1784976374" x1="0" y1="180.0" x2="0" y2="286.0" gradientUnits="userSpaceOnUse" xlink:type="simple" xlink:actuate="onLoad" xlink:show="other" /></defs></svg>
