<?xml version="1.0" encoding="UTF-8"?>
<svg xmlns="http://www.w3.org/2000/svg" style="stroke-dasharray:none; shape-rendering:auto; font-family:'Arial'; text-rendering:auto; fill-opacity:1; color-interpolation:auto; color-rendering:auto; font-size:12; fill:black; stroke:black; image-rendering:auto; stroke-miterlimit:10; stroke-linecap:square; stroke-linejoin:miter; font-style:normal; stroke-width:1; stroke-dashoffset:0; font-weight:normal; stroke-opacity:1;" contentScriptType="text/ecmascript" preserveAspectRatio="xMidYMid meet" zoomAndPan="magnify" version="1.0" contentStyleType="text/css" xml:xlink="http://www.w3.org/1999/xlink" width="1291" height="921"><rect x="100" y="0" width="1191" height="921" ry="0" rx="0" style="stroke:#000000; fill:#E3E4EA" /><rect x="130" y="0" width="1161" height="307" ry="0" rx="0" style="stroke:#000000; fill:#D5D8FD" /><g componentSequence="5"><text x="-153" y="137" transform="rotate(270)" text-anchor="middle" style="font-weight:bold;font-size:10px;stroke:none; fill:#434343"><tspan dy="14" x="-153">Demandante</tspan></text></g><rect x="130" y="307" width="1161" height="307" ry="0" rx="0" style="stroke:#000000; fill:#D6E0D0" /><g componentSequence="8"><text x="-460" y="137" transform="rotate(270)" text-anchor="middle" style="font-weight:bold;font-size:10px;stroke:none; fill:#434343"><tspan dy="14" x="-460">USO</tspan></text></g><rect x="130" y="614" width="1161" height="307" ry="0" rx="0" style="stroke:#000000; fill:#D0DAAE" /><g componentSequence="7"><text x="-767" y="137" transform="rotate(270)" text-anchor="middle" style="font-weight:bold;font-size:10px;stroke:none; fill:#434343"><tspan dy="14" x="-767">Locadora de Veículos</tspan></text></g><g componentSequence="4"><text x="-460" y="107" transform="rotate(270)" text-anchor="middle" style="font-weight:bold;font-size:10px;stroke:none; fill:#434343"><tspan dy="14" x="-460">Solicitação de Veículo</tspan></text></g><g sequence="9"><ellipse cx="197" cy="156" rx="17" ry="17" stroke-width="1" style="fill:url(#linearGradient66FF6696FF96B6FFB6_120124004);" stroke="336633" /></g><g sequence="10"><rect x="300" y="122" width="106" height="70" ry="5" rx="5" style="fill:url(#linearGradientF8FBFEEDF5FCDEEDFAD4E7F8E2E5E9_166665457);" stroke="191970" /></g><g componentSequence="10"><text x="353" y="137" text-anchor="middle" style="font-weight:bold;font-size:10px;stroke:none; fill:#333399"><tspan dy="14" x="353">Aprovação do</tspan><tspan dy="14" x="353">Gerente</tspan></text></g><g sequence="12"><polygon points=" 480 128 510 98 540 128 510 158 480 128" style="fill:url(#linearGradientFAFBFCFFFFCC_231774484);" stroke="000000" /></g><g componentSequence="12"><text x="510" y="168" text-anchor="middle" style="font-weight:bold;font-size:10px;stroke:none; fill:#333399"><tspan dy="14" x="510">Viagem</tspan><tspan dy="14" x="510">Aprovad</tspan><tspan dy="14" x="510">a</tspan></text></g><g sequence="14"><rect x="200" y="422" width="106" height="98" ry="5" rx="5" style="fill:url(#linearGradientF8FBFEEDF5FCDEEDFAD4E7F8E2E5E9_1221727946);" stroke="191970" /></g><g componentSequence="14"><text x="253" y="437" text-anchor="middle" style="font-weight:bold;font-size:10px;stroke:none; fill:#333399"><tspan dy="14" x="253">USO -</tspan><tspan dy="14" x="253">Solicitação do</tspan><tspan dy="14" x="253">Veículo a</tspan><tspan dy="14" x="253">Locadora</tspan></text></g><g sequence="15"><rect x="460" y="429" width="106" height="84" ry="5" rx="5" style="fill:url(#linearGradientF8FBFEEDF5FCDEEDFAD4E7F8E2E5E9_145323622);" stroke="191970" /></g><g componentSequence="15"><text x="513" y="444" text-anchor="middle" style="font-weight:bold;font-size:10px;stroke:none; fill:#333399"><tspan dy="14" x="513">UMP - Liberação</tspan><tspan dy="14" x="513">do Veículo</tspan><tspan dy="14" x="513">próprio</tspan></text></g><g sequence="16"><rect x="210" y="720" width="106" height="70" ry="5" rx="5" style="fill:url(#linearGradientF8FBFEEDF5FCDEEDFAD4E7F8E2E5E9_2043738902);" stroke="191970" /></g><g componentSequence="16"><text x="263" y="735" text-anchor="middle" style="font-weight:bold;font-size:10px;stroke:none; fill:#333399"><tspan dy="14" x="263">Aluguel do</tspan><tspan dy="14" x="263">Veículo</tspan></text></g><g sequence="17"><ellipse cx="1227" cy="97" rx="17" ry="17" stroke-width="3" style="fill:url(#linearGradientFF6666FF9696FFB6B6_1883358465);" stroke="993333" /></g><g sequence="23"><rect x="670" y="59" width="106" height="84" ry="5" rx="5" style="fill:url(#linearGradientF8FBFEEDF5FCDEEDFAD4E7F8E2E5E9_687729029);" stroke="191970" /></g><g componentSequence="23"><text x="723" y="74" text-anchor="middle" style="font-weight:bold;font-size:10px;stroke:none; fill:#333399"><tspan dy="14" x="723">Realização da</tspan><tspan dy="14" x="723">Viagem e</tspan><tspan dy="14" x="723">Avaliação</tspan></text></g><g sequence="24"><rect x="1170" y="180" width="106" height="84" ry="5" rx="5" style="fill:url(#linearGradientF8FBFEEDF5FCDEEDFAD4E7F8E2E5E9_1797562554);" stroke="191970" /></g><g componentSequence="24"><text x="1223" y="195" text-anchor="middle" style="font-weight:bold;font-size:10px;stroke:none; fill:#333399"><tspan dy="14" x="1223">Devolução do</tspan><tspan dy="14" x="1223">Veículo e</tspan><tspan dy="14" x="1223">Avaliação</tspan></text></g><g sequence="31"><ellipse cx="357" cy="37" rx="17" ry="17" stroke-width="3" style="fill:url(#linearGradientFF6666FF9696FFB6B6_357756547);" stroke="993333" /></g><g sequence="31"><polygon points=" 348 33 353 28 358 33 363 28 368 33 363 38 368 43 363 48 358 43 353 48 348 43 353 38" style="stroke:none; fill:#993333" /></g><g sequence="36"><rect x="720" y="422" width="106" height="84" ry="5" rx="5" style="fill:url(#linearGradientF8FBFEEDF5FCDEEDFAD4E7F8E2E5E9_1799702757);" stroke="191970" /></g><g componentSequence="36"><text x="773" y="437" text-anchor="middle" style="font-weight:bold;font-size:10px;stroke:none; fill:#333399"><tspan dy="14" x="773">USO -</tspan><tspan dy="14" x="773">Recebimento do</tspan><tspan dy="14" x="773">Veículo</tspan></text></g><g sequence="44"><rect x="970" y="722" width="106" height="98" ry="5" rx="5" style="fill:url(#linearGradientF8FBFEEDF5FCDEEDFAD4E7F8E2E5E9_749942217);" stroke="191970" /></g><g componentSequence="44"><text x="1023" y="737" text-anchor="middle" style="font-weight:bold;font-size:10px;stroke:none; fill:#333399"><tspan dy="14" x="1023">Adição das</tspan><tspan dy="14" x="1023">diárias ao</tspan><tspan dy="14" x="1023">contrato de</tspan><tspan dy="14" x="1023">aluguel</tspan></text></g><g sequence="54"><rect x="720" y="190" width="106" height="70" ry="5" rx="5" style="fill:url(#linearGradientF8FBFEEDF5FCDEEDFAD4E7F8E2E5E9_1658610069);" stroke="191970" /></g><g componentSequence="54"><text x="773" y="205" text-anchor="middle" style="font-weight:bold;font-size:10px;stroke:none; fill:#333399"><tspan dy="14" x="773">Realização da</tspan><tspan dy="14" x="773">Viagem</tspan></text></g><g componentSequence="22"><text x="176" y="612" style="font-size:10px;font-weight:none;stroke:none; fill:#333399" text-anchor="left" /></g><g componentSequence="27"><text x="453" y="156" style="font-size:10px;font-weight:none;stroke:none; fill:#333399" text-anchor="left" /></g><g componentSequence="29"><text x="996" y="45" style="font-size:10px;font-weight:none;stroke:none; fill:#333399" text-anchor="left" /></g><g componentSequence="41"><text x="1235" y="147" style="font-size:10px;font-weight:none;stroke:none; fill:#333399" text-anchor="left" /></g><g componentSequence="48"><text x="267" y="156" style="font-size:10px;font-weight:none;stroke:none; fill:#333399" text-anchor="left" /></g><g componentSequence="49"><text x="365" y="88" style="font-size:10px;font-weight:none;stroke:none; fill:#333399" text-anchor="left" /></g><g componentSequence="50"><text x="327" y="254" style="font-size:10px;font-weight:none;stroke:none; fill:#333399" text-anchor="left" /></g><g componentSequence="51"><text x="521" y="321" style="font-size:10px;font-weight:none;stroke:none; fill:#333399" text-anchor="left" /></g><g componentSequence="52"><text x="647" y="328" style="font-size:10px;font-weight:none;stroke:none; fill:#333399" text-anchor="left" /></g><g componentSequence="60"><text x="1032" y="436" style="font-size:10px;font-weight:none;stroke:none; fill:#333399" text-anchor="left" /></g><g componentSequence="61"><text x="1008" y="223" style="font-size:10px;font-weight:none;stroke:none; fill:#333399" text-anchor="left" /></g><g componentSequence="62"><text x="679" y="754" style="font-size:10px;font-weight:none;stroke:none; fill:#333399" text-anchor="left" /></g><g componentSequence="63"><text x="783" y="341" style="font-size:10px;font-weight:none;stroke:none; fill:#333399" text-anchor="left" /></g><g componentSequence="64"><text x="880" y="669" style="font-size:10px;font-weight:none;stroke:none; fill:#333399" text-anchor="left" /></g><path style="fill:none; stroke:#000000;stroke-width:1" d="M214.0 156.0 L299.0 156.0" /><polygon style="fill:#000000; stroke:#000000;" points=" 289 151 299 156 289 161 291 156" /><path style="fill:none; stroke:#000000;stroke-width:1" d="M406.0 156.0 L479.0 156.0" /><polygon style="fill:#000000; stroke:#000000;" points=" 469 151 479 156 469 161 471 156" /><path style="fill:none; stroke:#000000;stroke-width:1" d="M354.0 121.0 L357.0 54.0" /><polygon style="fill:#000000; stroke:#000000;" points=" 352 64 357 54 362 64 357 62" /><path style="fill:none; stroke:#000000;stroke-width:1" d="M509.0 214.0 L508.0 253.0 L253.0 254.0 L253.0 421.0" /><polygon style="fill:#000000; stroke:#000000;" points=" 258 411 253 421 248 411 253 413" /><path style="fill:none; stroke:#000000;stroke-width:1" d="M510.0 214.0 L512.0 428.0" /><polygon style="fill:#000000; stroke:#000000;" points=" 517 418 512 428 507 418 512 420" /><path style="fill:none; stroke:#000000;stroke-width:1" d="M199.0 459.0 L199.0 459.0 L166.0 460.0 L166.0 754.0 L209.0 754.0" /><polygon style="fill:#000000; stroke:#000000;" points=" 199 749 209 754 199 759 201 754" /><path style="fill:none; stroke:#000000;stroke-width:1" d="M566.0 465.0 L637.0 458.0 L637.0 173.0 L672.0 143.0" /><polygon style="fill:#000000; stroke:#000000;" points=" 661 146 672 143 668 153 666 148" /><path style="fill:none; stroke:#000000;stroke-width:1" d="M316.0 754.0 L774.0 754.0 L773.0 506.0" /><polygon style="fill:#000000; stroke:#000000;" points=" 768 516 773 506 778 516 773 514" /><path style="fill:none; stroke:#000000;stroke-width:1" d="M721.0 58.0 L721.0 45.0 L781.0 45.0 L911.0 45.0 L1157.0 45.0 L1228.0 44.0 L1227.0 80.0" /><polygon style="fill:#000000; stroke:#000000;" points=" 1232 70 1227 80 1222 70 1227 72" /><path style="fill:none; stroke:#000000;stroke-width:1" d="M1224.0 179.0 L1227.0 114.0" /><polygon style="fill:#000000; stroke:#000000;" points=" 1222 124 1227 114 1232 124 1227 122" /><path style="fill:none; stroke:#000000;stroke-width:1" d="M826.0 224.0 L1169.0 222.0" /><polygon style="fill:#000000; stroke:#000000;" points=" 1159 217 1169 222 1159 227 1161 222" /><path style="fill:none; stroke:#F00000;stroke-width:1" d="M773.0 421.0 L773.0 260.0" /><polygon style="fill:#F00000; stroke:#F00000;" points=" 768 270 773 260 778 270 773 268" /><polygon style="fill:#F00000; stroke:#F00000;" points=" 778 411 773 421 768 411 773 413" /><path style="fill:none; stroke:#000000;stroke-width:1" d="M826.0 495.0 L870.0 521.0 L870.0 770.0 L969.0 770.0" /><polygon style="fill:#000000; stroke:#000000;" points=" 959 765 969 770 959 775 961 770" /><path style="fill:none; stroke:#000000;stroke-width:1" d="M1022.0 721.0 L1022.0 382.0 L826.0 258.0" /><polygon style="fill:#000000; stroke:#000000;" points=" 832 268 826 258 837 259 833 262" /><defs><linearGradient xmlns:xlink="http://www.w3.org/1999/xlink" xlink:href="#linearGradient66FF6696FF96B6FFB6" id="linearGradient66FF6696FF96B6FFB6_120124004" x1="0" y1="139.0" x2="0" y2="174.0" gradientUnits="userSpaceOnUse" xlink:type="simple" xlink:actuate="onLoad" xlink:show="other" /><linearGradient id="linearGradient66FF6696FF96B6FFB6"><stop style="stop-color:#66FF66;stop-opacity:1;" offset="0.0" id="stop66FF66" /><stop style="stop-color:#96FF96;stop-opacity:1;" offset="0.5" id="stop96FF96" /><stop style="stop-color:#B6FFB6;stop-opacity:1;" offset="1.0" id="stopB6FFB6" /></linearGradient><linearGradient xmlns:xlink="http://www.w3.org/1999/xlink" xlink:href="#linearGradientF8FBFEEDF5FCDEEDFAD4E7F8E2E5E9" id="linearGradientF8FBFEEDF5FCDEEDFAD4E7F8E2E5E9_166665457" x1="0" y1="122.0" x2="0" y2="228.0" gradientUnits="userSpaceOnUse" xlink:type="simple" xlink:actuate="onLoad" xlink:show="other" /><linearGradient id="linearGradientF8FBFEEDF5FCDEEDFAD4E7F8E2E5E9"><stop style="stop-color:#F8FBFE;stop-opacity:1;" offset="0.0" id="stopF8FBFE" /><stop style="stop-color:#EDF5FC;stop-opacity:1;" offset="0.25" id="stopEDF5FC" /><stop style="stop-color:#DEEDFA;stop-opacity:1;" offset="0.5" id="stopDEEDFA" /><stop style="stop-color:#D4E7F8;stop-opacity:1;" offset="0.75" id="stopD4E7F8" /><stop style="stop-color:#E2E5E9;stop-opacity:1;" offset="1.0" id="stopE2E5E9" /></linearGradient><linearGradient xmlns:xlink="http://www.w3.org/1999/xlink" xlink:href="#linearGradientFAFBFCFFFFCC" id="linearGradientFAFBFCFFFFCC_231774484" x1="0" y1="98.0" x2="0" y2="158.0" gradientUnits="userSpaceOnUse" xlink:type="simple" xlink:actuate="onLoad" xlink:show="other" /><linearGradient id="linearGradientFAFBFCFFFFCC"><stop style="stop-color:#FAFBFC;stop-opacity:1;" offset="0.0" id="stopFAFBFC" /><stop style="stop-color:#FFFFCC;stop-opacity:1;" offset="1.0" id="stopFFFFCC" /></linearGradient><linearGradient xmlns:xlink="http://www.w3.org/1999/xlink" xlink:href="#linearGradientF8FBFEEDF5FCDEEDFAD4E7F8E2E5E9" id="linearGradientF8FBFEEDF5FCDEEDFAD4E7F8E2E5E9_1221727946" x1="0" y1="422.0" x2="0" y2="528.0" gradientUnits="userSpaceOnUse" xlink:type="simple" xlink:actuate="onLoad" xlink:show="other" /><linearGradient xmlns:xlink="http://www.w3.org/1999/xlink" xlink:href="#linearGradientF8FBFEEDF5FCDEEDFAD4E7F8E2E5E9" id="linearGradientF8FBFEEDF5FCDEEDFAD4E7F8E2E5E9_145323622" x1="0" y1="429.0" x2="0" y2="535.0" gradientUnits="userSpaceOnUse" xlink:type="simple" xlink:actuate="onLoad" xlink:show="other" /><linearGradient xmlns:xlink="http://www.w3.org/1999/xlink" xlink:href="#linearGradientF8FBFEEDF5FCDEEDFAD4E7F8E2E5E9" id="linearGradientF8FBFEEDF5FCDEEDFAD4E7F8E2E5E9_2043738902" x1="0" y1="720.0" x2="0" y2="826.0" gradientUnits="userSpaceOnUse" xlink:type="simple" xlink:actuate="onLoad" xlink:show="other" /><linearGradient xmlns:xlink="http://www.w3.org/1999/xlink" xlink:href="#linearGradientFF6666FF9696FFB6B6" id="linearGradientFF6666FF9696FFB6B6_1883358465" x1="0" y1="80.0" x2="0" y2="115.0" gradientUnits="userSpaceOnUse" xlink:type="simple" xlink:actuate="onLoad" xlink:show="other" /><linearGradient id="linearGradientFF6666FF9696FFB6B6"><stop style="stop-color:#FF6666;stop-opacity:1;" offset="0.0" id="stopFF6666" /><stop style="stop-color:#FF9696;stop-opacity:1;" offset="0.5" id="stopFF9696" /><stop style="stop-color:#FFB6B6;stop-opacity:1;" offset="1.0" id="stopFFB6B6" /></linearGradient><linearGradient xmlns:xlink="http://www.w3.org/1999/xlink" xlink:href="#linearGradientF8FBFEEDF5FCDEEDFAD4E7F8E2E5E9" id="linearGradientF8FBFEEDF5FCDEEDFAD4E7F8E2E5E9_687729029" x1="0" y1="59.0" x2="0" y2="165.0" gradientUnits="userSpaceOnUse" xlink:type="simple" xlink:actuate="onLoad" xlink:show="other" /><linearGradient xmlns:xlink="http://www.w3.org/1999/xlink" xlink:href="#linearGradientF8FBFEEDF5FCDEEDFAD4E7F8E2E5E9" id="linearGradientF8FBFEEDF5FCDEEDFAD4E7F8E2E5E9_1797562554" x1="0" y1="180.0" x2="0" y2="286.0" gradientUnits="userSpaceOnUse" xlink:type="simple" xlink:actuate="onLoad" xlink:show="other" /><linearGradient xmlns:xlink="http://www.w3.org/1999/xlink" xlink:href="#linearGradientFF6666FF9696FFB6B6" id="linearGradientFF6666FF9696FFB6B6_357756547" x1="0" y1="20.0" x2="0" y2="55.0" gradientUnits="userSpaceOnUse" xlink:type="simple" xlink:actuate="onLoad" xlink:show="other" /><linearGradient xmlns:xlink="http://www.w3.org/1999/xlink" xlink:href="#linearGradientF8FBFEEDF5FCDEEDFAD4E7F8E2E5E9" id="linearGradientF8FBFEEDF5FCDEEDFAD4E7F8E2E5E9_1799702757" x1="0" y1="422.0" x2="0" y2="528.0" gradientUnits="userSpaceOnUse" xlink:type="simple" xlink:actuate="onLoad" xlink:show="other" /><linearGradient xmlns:xlink="http://www.w3.org/1999/xlink" xlink:href="#linearGradientF8FBFEEDF5FCDEEDFAD4E7F8E2E5E9" id="linearGradientF8FBFEEDF5FCDEEDFAD4E7F8E2E5E9_749942217" x1="0" y1="722.0" x2="0" y2="828.0" gradientUnits="userSpaceOnUse" xlink:type="simple" xlink:actuate="onLoad" xlink:show="other" /><linearGradient xmlns:xlink="http://www.w3.org/1999/xlink" xlink:href="#linearGradientF8FBFEEDF5FCDEEDFAD4E7F8E2E5E9" id="linearGradientF8FBFEEDF5FCDEEDFAD4E7F8E2E5E9_1658610069" x1="0" y1="190.0" x2="0" y2="296.0" gradientUnits="userSpaceOnUse" xlink:type="simple" xlink:actuate="onLoad" xlink:show="other" /></defs></svg>
