<?xml version="1.0" encoding="UTF-8"?>
<svg xmlns="http://www.w3.org/2000/svg" style="stroke-dasharray:none; shape-rendering:auto; font-family:'Arial'; text-rendering:auto; fill-opacity:1; color-interpolation:auto; color-rendering:auto; font-size:12; fill:black; stroke:black; image-rendering:auto; stroke-miterlimit:10; stroke-linecap:square; stroke-linejoin:miter; font-style:normal; stroke-width:1; stroke-dashoffset:0; font-weight:normal; stroke-opacity:1;" contentScriptType="text/ecmascript" preserveAspectRatio="xMidYMid meet" zoomAndPan="magnify" version="1.0" contentStyleType="text/css" xml:xlink="http://www.w3.org/1999/xlink" width="1291" height="921"><rect x="100" y="0" width="1191" height="921" ry="0" rx="0" style="stroke:#000000; fill:#E3E4EA" /><rect x="130" y="0" width="1161" height="307" ry="0" rx="0" style="stroke:#000000; fill:#D5D8FD" /><g componentSequence="5"><text x="-153" y="137" transform="rotate(270)" text-anchor="middle" style="font-weight:bold;font-size:10px;stroke:none; fill:#434343"><tspan dy="14" x="-153">Demandante</tspan></text></g><rect x="130" y="307" width="1161" height="307" ry="0" rx="0" style="stroke:#000000; fill:#D6E0D0" /><g componentSequence="8"><text x="-460" y="137" transform="rotate(270)" text-anchor="middle" style="font-weight:bold;font-size:10px;stroke:none; fill:#434343"><tspan dy="14" x="-460">USO</tspan></text></g><rect x="130" y="614" width="1161" height="307" ry="0" rx="0" style="stroke:#000000; fill:#D0DAAE" /><g componentSequence="7"><text x="-767" y="137" transform="rotate(270)" text-anchor="middle" style="font-weight:bold;font-size:10px;stroke:none; fill:#434343"><tspan dy="14" x="-767">Locadora de Veículos</tspan></text></g><g componentSequence="4"><text x="-460" y="107" transform="rotate(270)" text-anchor="middle" style="font-weight:bold;font-size:10px;stroke:none; fill:#434343"><tspan dy="14" x="-460">Solicitação de Veículo</tspan></text></g><g sequence="9"><ellipse cx="197" cy="156" rx="17" ry="17" stroke-width="1" style="fill:url(#linearGradient66FF6696FF96B6FFB6_1033843352);" stroke="336633" /></g><g sequence="10"><rect x="380" y="87" width="106" height="70" ry="5" rx="5" style="fill:url(#linearGradientF8FBFEEDF5FCDEEDFAD4E7F8E2E5E9_861461339);" stroke="191970" /></g><g componentSequence="10"><text x="433" y="102" text-anchor="middle" style="font-weight:bold;font-size:10px;stroke:none; fill:#333399"><tspan dy="14" x="433">Aprovação do</tspan><tspan dy="14" x="433">Gerente</tspan></text></g><g sequence="12"><polygon points=" 550 100 580 70 610 100 580 130 550 100" style="fill:url(#linearGradientFAFBFCFFFFCC_929520104);" stroke="000000" /></g><g componentSequence="12"><text x="580" y="140" text-anchor="middle" style="font-weight:bold;font-size:10px;stroke:none; fill:#333399"><tspan dy="14" x="580">Viagem</tspan><tspan dy="14" x="580">Aprovad</tspan><tspan dy="14" x="580">a</tspan></text></g><g sequence="14"><rect x="200" y="422" width="106" height="84" ry="5" rx="5" style="fill:url(#linearGradientF8FBFEEDF5FCDEEDFAD4E7F8E2E5E9_1919275360);" stroke="191970" /></g><g componentSequence="14"><text x="253" y="437" text-anchor="middle" style="font-weight:bold;font-size:10px;stroke:none; fill:#333399"><tspan dy="14" x="253">Solicitar o</tspan><tspan dy="14" x="253">Veículo da</tspan><tspan dy="14" x="253">Locadora</tspan></text></g><g sequence="15"><rect x="621" y="457" width="106" height="70" ry="5" rx="5" style="fill:url(#linearGradientF8FBFEEDF5FCDEEDFAD4E7F8E2E5E9_908731974);" stroke="191970" /></g><g componentSequence="15"><text x="674" y="472" text-anchor="middle" style="font-weight:bold;font-size:10px;stroke:none; fill:#333399"><tspan dy="14" x="674">Liberação do</tspan><tspan dy="14" x="674">Veículo próprio</tspan></text></g><g sequence="16"><rect x="210" y="720" width="106" height="70" ry="5" rx="5" style="fill:url(#linearGradientF8FBFEEDF5FCDEEDFAD4E7F8E2E5E9_1130209755);" stroke="191970" /></g><g componentSequence="16"><text x="263" y="735" text-anchor="middle" style="font-weight:bold;font-size:10px;stroke:none; fill:#333399"><tspan dy="14" x="263">Aluguel do</tspan><tspan dy="14" x="263">Veículo</tspan></text></g><g sequence="17"><ellipse cx="1227" cy="97" rx="17" ry="17" stroke-width="3" style="fill:url(#linearGradientFF6666FF9696FFB6B6_1324877889);" stroke="993333" /></g><g sequence="23"><rect x="670" y="59" width="106" height="98" ry="5" rx="5" style="fill:url(#linearGradientF8FBFEEDF5FCDEEDFAD4E7F8E2E5E9_306851375);" stroke="191970" /></g><g componentSequence="23"><text x="723" y="74" text-anchor="middle" style="font-weight:bold;font-size:10px;stroke:none; fill:#333399"><tspan dy="14" x="723">Realização da</tspan><tspan dy="14" x="723">Viagem e</tspan><tspan dy="14" x="723">Avaliação do</tspan><tspan dy="14" x="723">Serviço</tspan></text></g><g sequence="24"><rect x="1170" y="180" width="106" height="98" ry="5" rx="5" style="fill:url(#linearGradientF8FBFEEDF5FCDEEDFAD4E7F8E2E5E9_1966420534);" stroke="191970" /></g><g componentSequence="24"><text x="1223" y="195" text-anchor="middle" style="font-weight:bold;font-size:10px;stroke:none; fill:#333399"><tspan dy="14" x="1223">Devolução do</tspan><tspan dy="14" x="1223">Veículo e</tspan><tspan dy="14" x="1223">Avaliação do</tspan><tspan dy="14" x="1223">Serviço</tspan></text></g><g sequence="31"><ellipse cx="237" cy="37" rx="17" ry="17" stroke-width="3" style="fill:url(#linearGradientFF6666FF9696FFB6B6_1531446834);" stroke="993333" /></g><g sequence="31"><polygon points=" 228 33 233 28 238 33 243 28 248 33 243 38 248 43 243 48 238 43 233 48 228 43 233 38" style="stroke:none; fill:#993333" /></g><g sequence="36"><rect x="800" y="180" width="106" height="84" ry="5" rx="5" style="fill:url(#linearGradientF8FBFEEDF5FCDEEDFAD4E7F8E2E5E9_1442621210);" stroke="191970" /></g><g componentSequence="36"><text x="853" y="195" text-anchor="middle" style="font-weight:bold;font-size:10px;stroke:none; fill:#333399"><tspan dy="14" x="853">Retirada e</tspan><tspan dy="14" x="853">Realização da</tspan><tspan dy="14" x="853">viagem</tspan></text></g><g sequence="38"><polygon points=" 1000 210 1030 180 1060 210 1030 240 1000 210" style="fill:url(#linearGradientFAFBFCFFFFCC_369414364);" stroke="000000" /></g><g componentSequence="38"><text x="1030" y="250" text-anchor="middle" style="font-weight:bold;font-size:10px;stroke:none; fill:#333399"><tspan dy="14" x="1030">Adição</tspan><tspan dy="14" x="1030">de</tspan><tspan dy="14" x="1030">diárias</tspan></text></g><g sequence="42"><rect x="970" y="390" width="106" height="98" ry="5" rx="5" style="fill:url(#linearGradientF8FBFEEDF5FCDEEDFAD4E7F8E2E5E9_1258091688);" stroke="191970" /></g><g componentSequence="42"><text x="1023" y="405" text-anchor="middle" style="font-weight:bold;font-size:10px;stroke:none; fill:#333399"><tspan dy="14" x="1023">Notificar a</tspan><tspan dy="14" x="1023">locadora da</tspan><tspan dy="14" x="1023">adição de</tspan><tspan dy="14" x="1023">diárias</tspan></text></g><g sequence="44"><rect x="970" y="722" width="106" height="98" ry="5" rx="5" style="fill:url(#linearGradientF8FBFEEDF5FCDEEDFAD4E7F8E2E5E9_1360925267);" stroke="191970" /></g><g componentSequence="44"><text x="1023" y="737" text-anchor="middle" style="font-weight:bold;font-size:10px;stroke:none; fill:#333399"><tspan dy="14" x="1023">Adicionar as</tspan><tspan dy="14" x="1023">diárias ao</tspan><tspan dy="14" x="1023">contrato de</tspan><tspan dy="14" x="1023">aluguel</tspan></text></g><g componentSequence="22"><text x="176" y="612" style="font-size:10px;font-weight:none;stroke:none; fill:#333399" text-anchor="left" /></g><g componentSequence="27"><text x="528" y="125" style="font-size:10px;font-weight:none;stroke:none; fill:#333399" text-anchor="left" /></g><g componentSequence="29"><text x="975" y="45" style="font-size:10px;font-weight:none;stroke:none; fill:#333399" text-anchor="left" /></g><g componentSequence="32"><text x="344" y="37" style="font-size:10px;font-weight:none;stroke:none; fill:#333399" text-anchor="left" /></g><g componentSequence="33"><text x="732" y="307" style="font-size:10px;font-weight:none;stroke:none; fill:#333399" text-anchor="left" /></g><g componentSequence="34"><text x="656" y="276" style="font-size:10px;font-weight:none;stroke:none; fill:#333399" text-anchor="left" /></g><g componentSequence="37"><text x="785" y="735" style="font-size:10px;font-weight:none;stroke:none; fill:#333399" text-anchor="left" /></g><g componentSequence="39"><text x="963" y="231" style="font-size:10px;font-weight:none;stroke:none; fill:#333399" text-anchor="left" /></g><g componentSequence="40"><text x="1125" y="234" style="font-size:10px;font-weight:none;stroke:none; fill:#333399" text-anchor="left" /></g><g componentSequence="41"><text x="1235" y="147" style="font-size:10px;font-weight:none;stroke:none; fill:#333399" text-anchor="left" /></g><g componentSequence="43"><text x="1036" y="343" style="font-size:10px;font-weight:none;stroke:none; fill:#333399" text-anchor="left" /></g><g componentSequence="45"><text x="1033" y="605" style="font-size:10px;font-weight:none;stroke:none; fill:#333399" text-anchor="left" /></g><g componentSequence="46"><text x="947" y="493" style="font-size:10px;font-weight:none;stroke:none; fill:#333399" text-anchor="left" /></g><g componentSequence="47"><text x="394" y="271" style="font-size:10px;font-weight:none;stroke:none; fill:#333399" text-anchor="left" /></g><g componentSequence="48"><text x="307" y="141" style="font-size:10px;font-weight:none;stroke:none; fill:#333399" text-anchor="left" /></g><path style="fill:none; stroke:#000000;stroke-width:1" d="M214.0 154.0 L379.0 129.0" /><polygon style="fill:#000000; stroke:#000000;" points=" 368 126 379 129 370 135 371 130" /><path style="fill:none; stroke:#000000;stroke-width:1" d="M486.0 124.0 L549.0 126.0" /><polygon style="fill:#000000; stroke:#000000;" points=" 539 121 549 126 539 131 541 126" /><path style="fill:none; stroke:#000000;stroke-width:1" d="M394.0 86.0 L342.0 37.0 L255.0 37.0" /><polygon style="fill:#000000; stroke:#000000;" points=" 265 42 255 37 265 32 263 37" /><path style="fill:none; stroke:#F00000;stroke-width:1" d="M610.0 116.0 L625.0 111.0 L669.0 456.0" /><polygon style="fill:#F00000; stroke:#F00000;" points=" 673 445 669 456 663 447 668 448" /><polygon style="fill:#F00000; stroke:#F00000;" points=" 621 118 610 116 618 108 618 113" /><path style="fill:none; stroke:#000000;stroke-width:1" d="M579.0 186.0 L579.0 271.0 L253.0 271.0 L253.0 421.0" /><polygon style="fill:#000000; stroke:#000000;" points=" 258 411 253 421 248 411 253 413" /><path style="fill:none; stroke:#000000;stroke-width:1" d="M199.0 459.0 L199.0 459.0 L166.0 460.0 L166.0 754.0 L209.0 754.0" /><polygon style="fill:#000000; stroke:#000000;" points=" 199 749 209 754 199 759 201 754" /><path style="fill:none; stroke:#000000;stroke-width:1" d="M721.0 456.0 L722.0 455.0 L722.0 157.0" /><polygon style="fill:#000000; stroke:#000000;" points=" 717 167 722 157 727 167 722 165" /><path style="fill:none; stroke:#000000;stroke-width:1" d="M316.0 755.0 L772.0 755.0 L846.0 264.0" /><polygon style="fill:#000000; stroke:#000000;" points=" 840 273 846 264 849 275 845 272" /><path style="fill:none; stroke:#000000;stroke-width:1" d="M721.0 58.0 L721.0 45.0 L781.0 45.0 L911.0 45.0 L1157.0 45.0 L1213.0 87.0" /><polygon style="fill:#000000; stroke:#000000;" points=" 1208 77 1213 87 1202 85 1207 82" /><path style="fill:none; stroke:#000000;stroke-width:1" d="M1224.0 179.0 L1227.0 114.0" /><polygon style="fill:#000000; stroke:#000000;" points=" 1222 124 1227 114 1232 124 1227 122" /><path style="fill:none; stroke:#000000;stroke-width:1" d="M1060.0 236.0 L1169.0 231.0" /><polygon style="fill:#000000; stroke:#000000;" points=" 1159 226 1169 231 1159 236 1161 231" /><path style="fill:none; stroke:#000000;stroke-width:1" d="M906.0 226.0 L999.0 235.0" /><polygon style="fill:#000000; stroke:#000000;" points=" 990 229 999 235 989 239 991 234" /><path style="fill:none; stroke:#000000;stroke-width:1" d="M1007.0 721.0 L866.0 264.0" /><polygon style="fill:#000000; stroke:#000000;" points=" 864 275 866 264 874 272 868 272" /><path style="fill:none; stroke:#000000;stroke-width:1" d="M1028.0 296.0 L1024.0 389.0" /><polygon style="fill:#000000; stroke:#000000;" points=" 1029 379 1024 389 1019 379 1024 381" /><path style="fill:none; stroke:#000000;stroke-width:1" d="M1023.0 488.0 L1023.0 721.0" /><polygon style="fill:#000000; stroke:#000000;" points=" 1028 711 1023 721 1018 711 1023 713" /><defs><linearGradient xmlns:xlink="http://www.w3.org/1999/xlink" xlink:href="#linearGradient66FF6696FF96B6FFB6" id="linearGradient66FF6696FF96B6FFB6_1033843352" x1="0" y1="139.0" x2="0" y2="174.0" gradientUnits="userSpaceOnUse" xlink:type="simple" xlink:actuate="onLoad" xlink:show="other" /><linearGradient id="linearGradient66FF6696FF96B6FFB6"><stop style="stop-color:#66FF66;stop-opacity:1;" offset="0.0" id="stop66FF66" /><stop style="stop-color:#96FF96;stop-opacity:1;" offset="0.5" id="stop96FF96" /><stop style="stop-color:#B6FFB6;stop-opacity:1;" offset="1.0" id="stopB6FFB6" /></linearGradient><linearGradient xmlns:xlink="http://www.w3.org/1999/xlink" xlink:href="#linearGradientF8FBFEEDF5FCDEEDFAD4E7F8E2E5E9" id="linearGradientF8FBFEEDF5FCDEEDFAD4E7F8E2E5E9_861461339" x1="0" y1="87.0" x2="0" y2="193.0" gradientUnits="userSpaceOnUse" xlink:type="simple" xlink:actuate="onLoad" xlink:show="other" /><linearGradient id="linearGradientF8FBFEEDF5FCDEEDFAD4E7F8E2E5E9"><stop style="stop-color:#F8FBFE;stop-opacity:1;" offset="0.0" id="stopF8FBFE" /><stop style="stop-color:#EDF5FC;stop-opacity:1;" offset="0.25" id="stopEDF5FC" /><stop style="stop-color:#DEEDFA;stop-opacity:1;" offset="0.5" id="stopDEEDFA" /><stop style="stop-color:#D4E7F8;stop-opacity:1;" offset="0.75" id="stopD4E7F8" /><stop style="stop-color:#E2E5E9;stop-opacity:1;" offset="1.0" id="stopE2E5E9" /></linearGradient><linearGradient xmlns:xlink="http://www.w3.org/1999/xlink" xlink:href="#linearGradientFAFBFCFFFFCC" id="linearGradientFAFBFCFFFFCC_929520104" x1="0" y1="70.0" x2="0" y2="130.0" gradientUnits="userSpaceOnUse" xlink:type="simple" xlink:actuate="onLoad" xlink:show="other" /><linearGradient id="linearGradientFAFBFCFFFFCC"><stop style="stop-color:#FAFBFC;stop-opacity:1;" offset="0.0" id="stopFAFBFC" /><stop style="stop-color:#FFFFCC;stop-opacity:1;" offset="1.0" id="stopFFFFCC" /></linearGradient><linearGradient xmlns:xlink="http://www.w3.org/1999/xlink" xlink:href="#linearGradientF8FBFEEDF5FCDEEDFAD4E7F8E2E5E9" id="linearGradientF8FBFEEDF5FCDEEDFAD4E7F8E2E5E9_1919275360" x1="0" y1="422.0" x2="0" y2="528.0" gradientUnits="userSpaceOnUse" xlink:type="simple" xlink:actuate="onLoad" xlink:show="other" /><linearGradient xmlns:xlink="http://www.w3.org/1999/xlink" xlink:href="#linearGradientF8FBFEEDF5FCDEEDFAD4E7F8E2E5E9" id="linearGradientF8FBFEEDF5FCDEEDFAD4E7F8E2E5E9_908731974" x1="0" y1="457.0" x2="0" y2="563.0" gradientUnits="userSpaceOnUse" xlink:type="simple" xlink:actuate="onLoad" xlink:show="other" /><linearGradient xmlns:xlink="http://www.w3.org/1999/xlink" xlink:href="#linearGradientF8FBFEEDF5FCDEEDFAD4E7F8E2E5E9" id="linearGradientF8FBFEEDF5FCDEEDFAD4E7F8E2E5E9_1130209755" x1="0" y1="720.0" x2="0" y2="826.0" gradientUnits="userSpaceOnUse" xlink:type="simple" xlink:actuate="onLoad" xlink:show="other" /><linearGradient xmlns:xlink="http://www.w3.org/1999/xlink" xlink:href="#linearGradientFF6666FF9696FFB6B6" id="linearGradientFF6666FF9696FFB6B6_1324877889" x1="0" y1="80.0" x2="0" y2="115.0" gradientUnits="userSpaceOnUse" xlink:type="simple" xlink:actuate="onLoad" xlink:show="other" /><linearGradient id="linearGradientFF6666FF9696FFB6B6"><stop style="stop-color:#FF6666;stop-opacity:1;" offset="0.0" id="stopFF6666" /><stop style="stop-color:#FF9696;stop-opacity:1;" offset="0.5" id="stopFF9696" /><stop style="stop-color:#FFB6B6;stop-opacity:1;" offset="1.0" id="stopFFB6B6" /></linearGradient><linearGradient xmlns:xlink="http://www.w3.org/1999/xlink" xlink:href="#linearGradientF8FBFEEDF5FCDEEDFAD4E7F8E2E5E9" id="linearGradientF8FBFEEDF5FCDEEDFAD4E7F8E2E5E9_306851375" x1="0" y1="59.0" x2="0" y2="165.0" gradientUnits="userSpaceOnUse" xlink:type="simple" xlink:actuate="onLoad" xlink:show="other" /><linearGradient xmlns:xlink="http://www.w3.org/1999/xlink" xlink:href="#linearGradientF8FBFEEDF5FCDEEDFAD4E7F8E2E5E9" id="linearGradientF8FBFEEDF5FCDEEDFAD4E7F8E2E5E9_1966420534" x1="0" y1="180.0" x2="0" y2="286.0" gradientUnits="userSpaceOnUse" xlink:type="simple" xlink:actuate="onLoad" xlink:show="other" /><linearGradient xmlns:xlink="http://www.w3.org/1999/xlink" xlink:href="#linearGradientFF6666FF9696FFB6B6" id="linearGradientFF6666FF9696FFB6B6_1531446834" x1="0" y1="20.0" x2="0" y2="55.0" gradientUnits="userSpaceOnUse" xlink:type="simple" xlink:actuate="onLoad" xlink:show="other" /><linearGradient xmlns:xlink="http://www.w3.org/1999/xlink" xlink:href="#linearGradientF8FBFEEDF5FCDEEDFAD4E7F8E2E5E9" id="linearGradientF8FBFEEDF5FCDEEDFAD4E7F8E2E5E9_1442621210" x1="0" y1="180.0" x2="0" y2="286.0" gradientUnits="userSpaceOnUse" xlink:type="simple" xlink:actuate="onLoad" xlink:show="other" /><linearGradient xmlns:xlink="http://www.w3.org/1999/xlink" xlink:href="#linearGradientFAFBFCFFFFCC" id="linearGradientFAFBFCFFFFCC_369414364" x1="0" y1="180.0" x2="0" y2="240.0" gradientUnits="userSpaceOnUse" xlink:type="simple" xlink:actuate="onLoad" xlink:show="other" /><linearGradient xmlns:xlink="http://www.w3.org/1999/xlink" xlink:href="#linearGradientF8FBFEEDF5FCDEEDFAD4E7F8E2E5E9" id="linearGradientF8FBFEEDF5FCDEEDFAD4E7F8E2E5E9_1258091688" x1="0" y1="390.0" x2="0" y2="496.0" gradientUnits="userSpaceOnUse" xlink:type="simple" xlink:actuate="onLoad" xlink:show="other" /><linearGradient xmlns:xlink="http://www.w3.org/1999/xlink" xlink:href="#linearGradientF8FBFEEDF5FCDEEDFAD4E7F8E2E5E9" id="linearGradientF8FBFEEDF5FCDEEDFAD4E7F8E2E5E9_1360925267" x1="0" y1="722.0" x2="0" y2="828.0" gradientUnits="userSpaceOnUse" xlink:type="simple" xlink:actuate="onLoad" xlink:show="other" /></defs></svg>
